<svg width="146" height="146" viewBox="0 0 146 146" fill="none" xmlns="http://www.w3.org/2000/svg">
<g filter="url(#filter0_d_16_47)">
<g clip-path="url(#clip0_16_47)">
<rect x="4" width="138" height="138" fill="url(#paint0_linear_16_47)"/>
</g>
</g>
<path d="M24.556 89.2V64H27.76L27.976 67.312V89.2H24.556ZM33.88 82.432C32.368 82.432 31.048 82.036 29.92 81.244C28.816 80.452 27.964 79.348 27.364 77.932C26.764 76.516 26.464 74.872 26.464 73C26.464 71.104 26.764 69.46 27.364 68.068C27.964 66.652 28.816 65.548 29.92 64.756C31.048 63.964 32.368 63.568 33.88 63.568C35.488 63.568 36.904 63.964 38.128 64.756C39.352 65.548 40.3 66.652 40.972 68.068C41.668 69.46 42.016 71.104 42.016 73C42.016 74.872 41.668 76.516 40.972 77.932C40.3 79.348 39.352 80.452 38.128 81.244C36.904 82.036 35.488 82.432 33.88 82.432ZM33.052 79.336C34.132 79.336 35.08 79.072 35.896 78.544C36.712 77.992 37.348 77.248 37.804 76.312C38.284 75.352 38.524 74.248 38.524 73C38.524 71.752 38.296 70.66 37.84 69.724C37.384 68.764 36.748 68.02 35.932 67.492C35.116 66.94 34.168 66.664 33.088 66.664C32.104 66.664 31.216 66.94 30.424 67.492C29.656 68.02 29.056 68.764 28.624 69.724C28.192 70.684 27.976 71.776 27.976 73C27.976 74.248 28.192 75.352 28.624 76.312C29.056 77.248 29.656 77.992 30.424 78.544C31.192 79.072 32.068 79.336 33.052 79.336ZM45.751 82V56.8H49.171V82H45.751ZM64.9233 82L64.7433 78.868V72.604C64.7433 71.284 64.5873 70.192 64.2753 69.328C63.9873 68.44 63.5313 67.768 62.9073 67.312C62.3073 66.856 61.5033 66.628 60.4953 66.628C59.5593 66.628 58.7313 66.82 58.0113 67.204C57.3153 67.588 56.7393 68.188 56.2832 69.004L53.1873 67.852C53.6193 67.036 54.1713 66.304 54.8433 65.656C55.5153 65.008 56.3193 64.504 57.2553 64.144C58.2153 63.76 59.3193 63.568 60.5673 63.568C62.2473 63.568 63.6513 63.892 64.7793 64.54C65.9313 65.188 66.7833 66.16 67.3353 67.456C67.9113 68.728 68.1873 70.312 68.1633 72.208L68.1273 82H64.9233ZM59.6673 82.432C57.5313 82.432 55.8633 81.952 54.6633 80.992C53.4873 80.008 52.8993 78.652 52.8993 76.924C52.8993 75.076 53.5113 73.672 54.7353 72.712C55.9833 71.728 57.7113 71.236 59.9193 71.236H64.9233V73.936H60.8553C59.1993 73.936 58.0353 74.2 57.3633 74.728C56.6913 75.232 56.3553 75.94 56.3553 76.852C56.3553 77.692 56.6673 78.352 57.2913 78.832C57.9393 79.288 58.8273 79.516 59.9553 79.516C60.9393 79.516 61.7793 79.288 62.4753 78.832C63.1953 78.376 63.7473 77.776 64.1313 77.032C64.5393 76.264 64.7433 75.412 64.7433 74.476H66.3633C66.3633 76.924 65.7993 78.868 64.6713 80.308C63.5433 81.724 61.8753 82.432 59.6673 82.432ZM74.0178 81.352L71.5698 79.372L83.7378 64.54L86.0778 66.556L74.0178 81.352ZM71.5698 82V79.372L73.7658 79.084H86.1498V82H71.5698ZM71.5698 66.916V64H86.0778V66.556L83.8818 66.916H71.5698ZM91.5959 81.352L89.1479 79.372L101.316 64.54L103.656 66.556L91.5959 81.352ZM89.1479 82V79.372L91.3439 79.084H103.728V82H89.1479ZM89.1479 66.916V64H103.656V66.556L101.46 66.916H89.1479ZM118.642 82L118.462 78.868V72.604C118.462 71.284 118.306 70.192 117.994 69.328C117.706 68.44 117.25 67.768 116.626 67.312C116.026 66.856 115.222 66.628 114.214 66.628C113.278 66.628 112.45 66.82 111.73 67.204C111.034 67.588 110.458 68.188 110.002 69.004L106.906 67.852C107.338 67.036 107.89 66.304 108.562 65.656C109.234 65.008 110.038 64.504 110.974 64.144C111.934 63.76 113.038 63.568 114.286 63.568C115.966 63.568 117.37 63.892 118.498 64.54C119.65 65.188 120.502 66.16 121.054 67.456C121.63 68.728 121.906 70.312 121.882 72.208L121.846 82H118.642ZM113.386 82.432C111.25 82.432 109.582 81.952 108.382 80.992C107.206 80.008 106.618 78.652 106.618 76.924C106.618 75.076 107.23 73.672 108.454 72.712C109.702 71.728 111.43 71.236 113.638 71.236H118.642V73.936H114.574C112.918 73.936 111.754 74.2 111.082 74.728C110.41 75.232 110.074 75.94 110.074 76.852C110.074 77.692 110.386 78.352 111.01 78.832C111.658 79.288 112.546 79.516 113.674 79.516C114.658 79.516 115.498 79.288 116.194 78.832C116.914 78.376 117.466 77.776 117.85 77.032C118.258 76.264 118.462 75.412 118.462 74.476H120.082C120.082 76.924 119.518 78.868 118.39 80.308C117.262 81.724 115.594 82.432 113.386 82.432Z" fill="white"/>
<defs>
<filter id="filter0_d_16_47" x="0" y="0" width="146" height="146" filterUnits="userSpaceOnUse" color-interpolation-filters="sRGB">
<feFlood flood-opacity="0" result="BackgroundImageFix"/>
<feColorMatrix in="SourceAlpha" type="matrix" values="0 0 0 0 0 0 0 0 0 0 0 0 0 0 0 0 0 0 127 0" result="hardAlpha"/>
<feOffset dy="4"/>
<feGaussianBlur stdDeviation="2"/>
<feComposite in2="hardAlpha" operator="out"/>
<feColorMatrix type="matrix" values="0 0 0 0 0 0 0 0 0 0 0 0 0 0 0 0 0 0 0.25 0"/>
<feBlend mode="normal" in2="BackgroundImageFix" result="effect1_dropShadow_16_47"/>
<feBlend mode="normal" in="SourceGraphic" in2="effect1_dropShadow_16_47" result="shape"/>
</filter>
<linearGradient id="paint0_linear_16_47" x1="73" y1="0" x2="73" y2="138" gradientUnits="userSpaceOnUse">
<stop stop-color="#F434D5"/>
<stop offset="0.705" stop-color="#9F2AFB"/>
</linearGradient>
<clipPath id="clip0_16_47">
<rect x="4" width="138" height="138" rx="16" fill="white"/>
</clipPath>
</defs>
</svg>
